<?xml version="1.0" encoding="UTF-8"?>
<!-- Generated by Pixelmator Pro Trial 2.4.5 -->
<svg width="140" height="140" viewBox="0 0 140 140" xmlns="http://www.w3.org/2000/svg" xmlns:xlink="http://www.w3.org/1999/xlink">
    <path id="Atom" fill="#0b5394" fill-rule="evenodd" stroke="none" d="M 109.217506 69.858604 C 122.441208 82.178894 128.894684 94.226303 124.81813 101.28791 C 120.741585 108.349518 107.134407 108.691582 89.853165 103.400253 C 85.795601 121.013329 78.641426 132.717209 70.48735 132.717209 C 62.333267 132.717209 55.174706 121.017235 51.116669 103.401718 C 33.837849 108.691582 20.23311 108.348541 16.156561 101.28791 C 12.080011 94.227287 18.532522 82.179382 31.757187 69.858604 C 18.533489 57.538322 12.080011 45.490913 16.156561 38.429306 C 20.23311 31.367699 33.84029 31.025635 51.121532 36.316963 C 55.179092 18.703888 62.333267 7 70.48735 7 C 78.641426 7 85.799988 18.699982 89.858025 36.315491 C 107.136848 31.025635 120.741585 31.368675 124.81813 38.429306 C 128.894684 45.489929 122.442169 57.537834 109.217506 69.858604 Z M 120.597847 98.851532 C 123.730049 93.426689 117.693192 83.511108 105.804138 72.915298 C 101.690559 76.446945 97.383163 79.746384 92.902046 82.798218 C 92.499619 88.205811 91.795708 93.586716 90.793602 98.915848 C 105.912323 103.913849 117.466125 104.275879 120.597847 98.851532 Z M 53.185154 53.561661 C 55.08585 52.361992 57.036251 51.183098 59.036362 50.025009 C 61.040039 48.868217 63.039333 47.775253 65.029854 46.728592 C 61.456665 45.077217 57.968258 43.614891 54.616764 42.363571 C 54.025707 45.893394 53.541836 49.63958 53.185154 53.561661 Z M 61.47274 54.243843 C 58.443832 55.992844 55.534306 57.782768 52.744167 59.613632 C 52.559982 62.941719 52.458134 66.360939 52.458134 69.858604 C 52.458134 73.356277 52.55949 76.777939 52.744167 80.102615 C 55.533337 81.925995 58.44286 83.715927 61.47274 85.472397 C 64.501648 87.22139 67.506516 88.845642 70.48735 90.345154 C 73.460709 88.841415 76.465576 87.217163 79.501953 85.472397 C 82.530861 83.723396 85.440384 81.933472 88.23053 80.102615 C 88.414711 76.777939 88.516563 73.356277 88.516563 69.858604 C 88.516563 66.360939 88.415207 62.939285 88.23053 59.614601 C 85.44136 57.791214 82.531837 56.001297 79.501953 54.24482 C 76.473045 52.495827 73.468178 50.871574 70.48735 49.372063 C 67.513985 50.874825 64.509117 52.499077 61.47274 54.24482 Z M 47.720352 63.023582 C 44.50433 65.292831 41.50174 67.584496 38.740826 69.862015 C 41.500267 72.138565 44.511154 74.428276 47.727165 76.696548 C 47.638493 74.449234 47.585373 72.171715 47.585373 69.858604 C 47.585373 67.545502 47.634106 65.26944 47.720352 63.024567 Z M 87.789543 86.154572 C 85.888847 87.354248 83.938446 88.533127 81.938332 89.691223 C 79.934654 90.84803 77.935364 91.940979 75.944847 92.987656 C 79.518028 94.639038 83.006439 96.101341 86.357933 97.352676 C 86.94899 93.823822 87.432861 90.077637 87.789543 86.155563 Z M 93.254341 76.691681 C 96.470367 74.422432 99.472954 72.130775 102.233871 69.853256 C 99.474426 67.576691 96.463539 65.286987 93.247528 63.018723 C 93.336205 65.267006 93.38932 67.54454 93.38932 69.857628 C 93.38932 72.170731 93.340591 74.447777 93.254341 76.69265 Z M 70.48735 127.844452 C 76.750305 127.844452 82.261887 117.562927 85.492531 101.970093 C 80.374809 100.171928 75.361389 98.089661 70.475662 95.732971 C 65.595062 98.087784 60.587589 100.170029 55.476322 101.970093 C 58.707932 117.566826 64.223412 127.844452 70.48735 127.844452 Z M 65.020111 92.988617 C 63.032028 91.943253 61.037441 90.844452 59.036362 89.692207 C 57.035282 88.539963 55.086178 87.362045 53.189049 86.158478 C 53.545731 90.075211 54.017426 93.830643 54.61092 97.356079 C 57.960453 96.105728 61.449841 94.63855 65.020111 92.988617 Z M 20.376848 98.851532 C 23.508097 104.275406 35.057987 103.914337 50.175739 98.91732 C 49.17931 93.589684 48.479805 88.210793 48.080441 82.805534 C 43.597347 79.752983 39.288002 76.452728 35.172504 72.920158 C 23.286379 83.514023 17.245125 93.427658 20.376848 98.851532 Z M 20.376848 40.865685 C 17.24465 46.290527 23.281502 56.206108 35.170559 66.801918 C 39.284134 63.270271 43.591534 59.970833 48.072651 56.918999 C 48.475075 51.511406 49.178986 46.130508 50.181091 40.801369 C 35.062374 35.803368 23.508574 35.44133 20.376848 40.865685 Z M 70.48735 11.872757 C 64.224388 11.872757 58.712811 22.154289 55.482166 37.747124 C 60.599888 39.545288 65.613312 41.627556 70.499039 43.984245 C 75.379631 41.629433 80.387108 39.547195 85.498375 37.747124 C 82.266762 22.150391 76.751289 11.872757 70.48735 11.872757 Z M 75.954582 46.728592 C 77.942673 47.773964 79.937248 48.872765 81.938332 50.025009 C 83.939415 51.177254 85.888519 52.355164 87.785645 53.558746 C 87.428963 49.642006 86.957268 45.886566 86.363777 42.361137 C 83.014244 43.611488 79.524857 45.078674 75.954582 46.728592 Z M 120.597847 40.865685 C 117.466599 35.441811 105.91671 35.802879 90.798958 40.799896 C 91.795387 46.127533 92.494888 51.506424 92.894257 56.911682 C 97.37735 59.964233 101.686691 63.264488 105.802193 66.797058 C 117.688316 56.203194 123.729568 46.289558 120.597847 40.865685 Z M 70.48735 77.167747 C 66.450623 77.167747 63.178207 73.895332 63.178207 69.858604 C 63.178207 65.821884 66.450623 62.549469 70.48735 62.549469 C 74.524071 62.549469 77.796486 65.821884 77.796486 69.858604 C 77.796486 73.895332 74.524071 77.167747 70.48735 77.167747 Z"/>
</svg>
